<svg width="29" height="29" viewBox="0 0 29 29" fill="none" xmlns="http://www.w3.org/2000/svg">
<rect width="29" height="29" rx="14.5" fill="#D9D9D9"/>
<path d="M3.05261 14.5C3.05261 8.17777 8.17777 3.05261 14.5 3.05261C20.8222 3.05261 25.9473 8.17777 25.9473 14.5C25.9473 20.8222 20.8222 25.9473 14.5 25.9473C8.17777 25.9473 3.05261 20.8222 3.05261 14.5Z" fill="#8185BC"/>
<path fill-rule="evenodd" clip-rule="evenodd" d="M11.8051 17.1949C12.5523 17.9422 13.4506 18.3158 14.5 18.3158C15.5493 18.3158 16.4476 17.9422 17.1949 17.1949C17.9421 16.4476 18.3158 15.5493 18.3158 14.5C18.3158 13.4507 17.9421 12.5524 17.1949 11.8051C16.4476 11.0578 15.5493 10.6842 14.5 10.6842C13.4506 10.6842 12.5523 11.0578 11.8051 11.8051C11.0578 12.5524 10.6842 13.4507 10.6842 14.5C10.6842 15.5493 11.0578 16.4476 11.8051 17.1949ZM6.86841 23.2763V25.9474H22.1316V23.2763C22.1316 22.7357 21.9924 22.2389 21.7142 21.7858C21.436 21.3326 21.0663 20.9868 20.6053 20.7483C19.6195 20.2555 18.6179 19.8858 17.6003 19.6394C16.5828 19.3929 15.5493 19.2697 14.5 19.2697C13.4506 19.2697 12.4172 19.3929 11.3997 19.6394C10.3821 19.8858 9.38047 20.2555 8.39472 20.7483C7.93365 20.9868 7.56399 21.3326 7.28576 21.7858C7.00753 22.2389 6.86841 22.7357 6.86841 23.2763Z" fill="#D9D9D9"/>
</svg>
